<?xml version="1.0" encoding="UTF-8"?>
<svg width="32px" height="32px" viewBox="0 0 32 32" version="1.1" xmlns="http://www.w3.org/2000/svg" xmlns:xlink="http://www.w3.org/1999/xlink">
    <!-- Generator: Sketch 50.2 (55047) - http://www.bohemiancoding.com/sketch -->
    <title>stream</title>
    <desc>Created with Sketch.</desc>
    <defs>
        <path d="M15.9999851,0 C7.07584238,0.0711111111 -0.0705826206,7.28888889 0.000526085883,16.1066667 C0.0716347924,24.8533333 7.2180598,32 15.9999851,32 C15.9999851,32 16.1066481,32 16.1066481,32 C20.3731705,31.9644444 24.3908124,30.2933333 27.3773781,27.2355556 C30.3639438,24.1777778 32.0349984,20.16 31.999444,15.8933333 C31.9283353,7.14666667 24.7819103,0 15.9999851,0 Z M26.4150284,16.6778325 L23.1996505,16.6778325 C22.7802534,16.6778325 22.395806,16.3835796 22.256007,15.9789819 L20.6133683,11.270936 L17.3630406,22.1215107 C17.2232416,22.56289 16.873744,22.8571429 16.4543469,22.8571429 C16.4193971,22.8571429 16.4193971,22.8571429 16.3844474,22.8571429 C16,22.8571429 15.6155526,22.5996716 15.4757536,22.2318555 L11.7361293,13.4042693 L9.95369157,16.1996716 C9.77894277,16.4939245 9.46439493,16.6778325 9.11489734,16.6778325 L5.5849716,16.6778325 C5.02577545,16.6778325 4.57142857,16.1996716 4.57142857,15.6111658 C4.57142857,15.0226601 5.02577545,14.5444992 5.5849716,14.5444992 L8.55570118,14.5444992 L11.0371341,10.608867 C11.2468327,10.2778325 11.5963303,10.0939245 11.9807776,10.1307061 C12.365225,10.1674877 12.6797728,10.3881773 12.8195719,10.7559934 L16.2096986,18.8111658 L19.5998253,7.59277504 C19.7396243,7.15139573 20.1240716,6.85714286 20.5434688,6.85714286 C20.9978156,6.85714286 21.382263,7.11461412 21.522062,7.55599343 L23.8986457,14.5077176 L26.4150284,14.5077176 C26.9742246,14.5077176 27.4285714,14.9858785 27.4285714,15.5743842 C27.4285714,16.16289 26.9742246,16.6778325 26.4150284,16.6778325 Z" id="path-1"></path>
    </defs>
    <g id="Thankyou" stroke="none" stroke-width="1" fill="none" fill-rule="evenodd">
        <g id="CreateBillingThankyou" transform="translate(-1090.000000, -14.000000)">
            <g id="stream" transform="translate(1090.000000, 14.000000)">
                <mask id="mask-2" fill="white">
                    <use xlink:href="#path-1"></use>
                </mask>
                <use id="Shape" fill="#FFFFFF" fill-rule="nonzero" xlink:href="#path-1"></use>
            </g>
        </g>
    </g>
</svg>